<mxfile host="app.diagrams.net" modified="2024-01-06T04:30:22.037Z" agent="Mozilla/5.0 (Windows NT 10.0; Win64; x64) AppleWebKit/537.36 (KHTML, like Gecko) Chrome/120.0.0.0 Safari/537.36" etag="hSfGghgyeFL177nrSszG" version="22.1.16" type="github">
  <diagram name="Page-1" id="197159a0-c6a4-9194-75a8-e4174976684c">
    <mxGraphModel dx="1434" dy="746" grid="1" gridSize="10" guides="1" tooltips="1" connect="1" arrows="1" fold="1" page="1" pageScale="1.5" pageWidth="1169" pageHeight="826" background="none" math="0" shadow="0">
      <root>
        <mxCell id="0" style=";html=1;" />
        <mxCell id="1" style=";html=1;" parent="0" />
        <mxCell id="vxW0RGqJEejOWEnaERJO-1" value="" style="whiteSpace=wrap;html=1;aspect=fixed;" vertex="1" parent="1">
          <mxGeometry x="280" y="480" width="800" height="800" as="geometry" />
        </mxCell>
        <mxCell id="vxW0RGqJEejOWEnaERJO-2" value="" style="rounded=0;whiteSpace=wrap;html=1;" vertex="1" parent="1">
          <mxGeometry x="460" y="500" width="595" height="160" as="geometry" />
        </mxCell>
        <mxCell id="vxW0RGqJEejOWEnaERJO-3" value="" style="rounded=0;whiteSpace=wrap;html=1;" vertex="1" parent="1">
          <mxGeometry x="460" y="1100" width="595" height="160" as="geometry" />
        </mxCell>
        <mxCell id="vxW0RGqJEejOWEnaERJO-4" value="服务层" style="rounded=0;whiteSpace=wrap;html=1;" vertex="1" parent="1">
          <mxGeometry x="460" y="890" width="595" height="160" as="geometry" />
        </mxCell>
        <mxCell id="vxW0RGqJEejOWEnaERJO-5" value="" style="rounded=0;whiteSpace=wrap;html=1;" vertex="1" parent="1">
          <mxGeometry x="460" y="690" width="595" height="160" as="geometry" />
        </mxCell>
        <mxCell id="vxW0RGqJEejOWEnaERJO-6" value="&lt;font size=&quot;1&quot; color=&quot;#ffffff&quot;&gt;&lt;b style=&quot;font-size: 24px;&quot;&gt;展&lt;br&gt;现&lt;br&gt;层&lt;/b&gt;&lt;/font&gt;" style="shape=dataStorage;whiteSpace=wrap;html=1;fixedSize=1;fillStyle=solid;fillColor=#6666FF;" vertex="1" parent="1">
          <mxGeometry x="320" y="500" width="120" height="160" as="geometry" />
        </mxCell>
        <mxCell id="vxW0RGqJEejOWEnaERJO-7" value="&lt;font color=&quot;#ffffff&quot;&gt;&lt;span style=&quot;font-size: 24px;&quot;&gt;&lt;b&gt;通&lt;br&gt;讯&lt;br&gt;层&lt;/b&gt;&lt;/span&gt;&lt;/font&gt;" style="shape=dataStorage;whiteSpace=wrap;html=1;fixedSize=1;fillStyle=solid;fillColor=#6666FF;direction=west;" vertex="1" parent="1">
          <mxGeometry x="320" y="690" width="120" height="160" as="geometry" />
        </mxCell>
        <mxCell id="vxW0RGqJEejOWEnaERJO-8" value="&lt;font color=&quot;#ffffff&quot;&gt;&lt;span style=&quot;font-size: 24px;&quot;&gt;&lt;b&gt;服&lt;br&gt;务&lt;br&gt;层&lt;/b&gt;&lt;/span&gt;&lt;/font&gt;" style="shape=dataStorage;whiteSpace=wrap;html=1;fixedSize=1;fillStyle=solid;fillColor=#6666FF;" vertex="1" parent="1">
          <mxGeometry x="320" y="890" width="120" height="160" as="geometry" />
        </mxCell>
        <mxCell id="vxW0RGqJEejOWEnaERJO-10" value="&lt;font color=&quot;#ffffff&quot;&gt;&lt;span style=&quot;font-size: 24px;&quot;&gt;&lt;b&gt;数&lt;br&gt;据&lt;br&gt;层&lt;/b&gt;&lt;/span&gt;&lt;/font&gt;" style="shape=dataStorage;whiteSpace=wrap;html=1;fixedSize=1;fillStyle=solid;fillColor=#6666FF;direction=west;" vertex="1" parent="1">
          <mxGeometry x="330" y="1100" width="120" height="160" as="geometry" />
        </mxCell>
        <mxCell id="vxW0RGqJEejOWEnaERJO-11" value="&lt;font color=&quot;#3333ff&quot;&gt;Mysql&lt;/font&gt;" style="shape=cylinder3;whiteSpace=wrap;html=1;boundedLbl=1;backgroundOutline=1;size=15;fillColor=#FFD966;" vertex="1" parent="1">
          <mxGeometry x="530" y="1140" width="60" height="80" as="geometry" />
        </mxCell>
        <mxCell id="vxW0RGqJEejOWEnaERJO-12" value="&lt;font color=&quot;#3333ff&quot;&gt;&lt;br&gt;&lt;br&gt;Redis&lt;/font&gt;" style="html=1;whiteSpace=wrap;shape=isoCube2;backgroundOutline=1;isoAngle=15;fillColor=#FF3333;" vertex="1" parent="1">
          <mxGeometry x="700" y="1135" width="90" height="90" as="geometry" />
        </mxCell>
        <mxCell id="vxW0RGqJEejOWEnaERJO-17" value="OSS" style="shape=cylinder3;whiteSpace=wrap;html=1;boundedLbl=1;backgroundOutline=1;size=15;fillColor=#00FF80;" vertex="1" parent="1">
          <mxGeometry x="910" y="1140" width="60" height="80" as="geometry" />
        </mxCell>
        <mxCell id="vxW0RGqJEejOWEnaERJO-18" value="CDN" style="whiteSpace=wrap;html=1;aspect=fixed;" vertex="1" parent="1">
          <mxGeometry x="600" y="720" width="80" height="80" as="geometry" />
        </mxCell>
        <mxCell id="vxW0RGqJEejOWEnaERJO-19" value="HTTP/HTTPS" style="whiteSpace=wrap;html=1;aspect=fixed;" vertex="1" parent="1">
          <mxGeometry x="797" y="720" width="80" height="80" as="geometry" />
        </mxCell>
      </root>
    </mxGraphModel>
  </diagram>
</mxfile>
